<?xml version="1.0" standalone="no"?>
<!DOCTYPE svg PUBLIC "-//W3C//DTD SVG 20010904//EN"
 "http://www.w3.org/TR/2001/REC-SVG-20010904/DTD/svg10.dtd">
<svg version="1.0" xmlns="http://www.w3.org/2000/svg"
 width="258.000000pt" height="258.000000pt" viewBox="0 0 258.000000 258.000000"
 preserveAspectRatio="xMidYMid meet">
<metadata>
Created by potrace 1.11, written by Peter Selinger 2001-2013
</metadata>
<g transform="translate(0.000000,258.000000) scale(0.100000,-0.100000)"
fill="#000000" stroke="none">
<path d="M1115 2559 c-248 -34 -506 -155 -692 -324 -272 -247 -430 -630 -410
-995 39 -687 588 -1210 1271 -1210 436 0 831 217 1070 588 236 365 261 855 65
1246 -67 132 -127 215 -239 327 -182 184 -399 303 -647 354 -95 20 -322 27
-418 14z m-129 -354 c1 -38 105 -325 118 -325 17 0 661 333 672 348 14 19 48
11 52 -12 3 -11 -3 -25 -13 -32 -18 -14 -150 -574 -137 -585 5 -5 478 -169
560 -195 7 -2 12 -14 10 -26 -2 -19 -10 -23 -38 -24 -43 -1 -22 9 -343 -172
l-258 -145 6 -221 c7 -265 14 -366 25 -366 15 0 22 -40 10 -55 -18 -22 -42
-18 -65 9 -13 16 -117 66 -305 146 -157 66 -292 121 -300 122 -17 1 -201 -102
-225 -126 -9 -8 -22 -13 -30 -10 -23 9 -25 33 -6 51 21 20 81 136 81 155 0 16
-391 183 -428 183 -30 0 -43 32 -20 49 14 11 192 376 186 381 -35 29 -168 100
-184 97 -13 -2 -24 4 -28 14 -8 20 8 42 33 46 26 4 583 669 576 686 -7 19 14
44 34 40 10 -2 16 -14 17 -33z"/>
<path d="M1433 2021 c-178 -91 -323 -170 -323 -175 0 -9 90 -258 96 -264 6 -8
57 104 58 128 1 29 30 39 54 17 23 -19 114 -49 123 -40 6 8 300 467 313 491 9
15 50 35 -321 -157z"/>
<path d="M845 1935 c-64 -131 -114 -240 -111 -242 2 -2 81 34 175 81 l171 86
-11 27 c-6 16 -31 84 -56 153 -25 69 -47 127 -49 129 -2 2 -56 -103 -119 -234z"/>
<path d="M1618 1921 c-81 -126 -148 -234 -150 -241 -3 -12 168 -77 178 -68 6
6 125 530 121 534 -1 2 -69 -100 -149 -225z"/>
<path d="M652 1808 c-126 -150 -228 -275 -226 -276 1 -2 62 27 134 64 l132 68
55 115 c108 226 142 301 139 301 -2 0 -107 -123 -234 -272z"/>
<path d="M892 1743 l-183 -95 -42 -84 c-22 -46 -39 -85 -37 -88 6 -5 382 -26
463 -26 l54 0 23 49 22 49 -52 146 c-29 80 -56 146 -59 145 -3 0 -88 -43 -189
-96z"/>
<path d="M1294 1682 c-6 -4 -26 -36 -44 -71 l-32 -65 18 -53 c12 -34 24 -53
34 -53 13 1 141 190 144 214 2 20 -97 44 -120 28z"/>
<path d="M1377 1548 l-66 -103 37 -6 c20 -4 86 -8 147 -10 l109 -4 12 41 c6
22 15 58 18 80 l7 40 -88 29 c-48 16 -93 31 -99 33 -6 1 -40 -44 -77 -100z"/>
<path d="M525 1554 l-140 -74 70 0 c39 0 86 -3 106 -6 l36 -6 37 77 c20 43 35
79 34 80 -2 1 -66 -31 -143 -71z"/>
<path d="M1646 1499 c-9 -40 -15 -73 -14 -75 5 -4 505 -27 516 -23 10 4 -428
159 -469 167 -13 2 -20 -13 -33 -69z"/>
<path d="M1186 1482 c-21 -41 -21 -42 15 -42 27 0 30 3 23 23 -15 49 -21 52
-38 19z"/>
<path d="M420 1458 c0 -7 116 -78 127 -78 5 0 17 16 26 35 17 35 17 35 -7 35
-13 0 -51 3 -85 6 -33 4 -61 5 -61 2z"/>
<path d="M593 1406 l-23 -46 43 -27 c23 -14 109 -69 192 -121 82 -52 155 -96
162 -99 7 -3 40 51 87 146 42 83 76 155 76 159 0 5 -80 12 -177 16 -98 3 -214
9 -258 12 l-80 6 -22 -46z"/>
<path d="M1077 1258 c-60 -125 -75 -164 -66 -174 6 -8 17 -14 23 -14 17 0 216
317 210 335 -4 10 -19 15 -48 15 l-41 -1 -78 -161z"/>
<path d="M1284 1396 c-6 -26 83 -276 100 -276 6 0 53 14 104 31 l94 31 -3 72
c-1 39 3 84 10 99 6 16 11 32 11 37 0 10 -65 18 -208 24 -98 4 -102 3 -108
-18z"/>
<path d="M1618 1376 c-3 -14 -1 -29 3 -32 15 -9 10 -44 -6 -50 -16 -6 -22 -88
-7 -98 8 -5 504 153 535 170 14 8 -22 13 -140 18 -87 3 -208 9 -269 13 l-111
6 -5 -27z"/>
<path d="M1161 1210 c-52 -81 -95 -151 -95 -155 -1 -4 17 -9 39 -11 37 -3 216
46 238 65 6 7 -68 226 -82 243 -3 3 -48 -60 -100 -142z"/>
<path d="M475 1163 c-69 -142 -84 -182 -77 -199 7 -14 70 -46 213 -106 l204
-87 78 156 c71 144 76 157 60 168 -10 7 -92 59 -183 115 -91 57 -175 109 -187
117 -21 14 -24 11 -108 -164z"/>
<path d="M1808 1233 l-198 -64 0 -54 0 -54 98 55 c53 31 145 83 205 116 154
87 156 87 -105 1z"/>
<path d="M1480 1128 c-52 -17 -96 -31 -97 -32 -1 -1 9 -31 22 -66 14 -39 29
-64 36 -62 7 2 43 21 81 43 65 38 68 41 67 77 -1 72 -3 73 -109 40z"/>
<path d="M1254 1056 c-150 -49 -139 -41 -115 -73 11 -16 40 -50 64 -77 l43
-49 80 43 c43 24 81 44 83 46 3 3 -49 145 -52 143 -1 0 -47 -15 -103 -33z"/>
<path d="M915 924 c-38 -80 -71 -151 -73 -157 -2 -7 39 53 92 133 86 130 94
146 79 158 -9 6 -19 12 -22 11 -3 0 -37 -65 -76 -145z"/>
<path d="M957 893 c-49 -74 -85 -139 -80 -144 4 -4 29 -17 54 -27 l45 -20 126
71 126 71 -62 72 c-33 40 -67 73 -73 73 -7 1 -18 10 -25 21 -7 11 -15 20 -18
20 -3 0 -45 -62 -93 -137z"/>
<path d="M1507 979 c-38 -23 -66 -46 -64 -52 2 -7 38 -104 78 -216 48 -131 75
-195 78 -180 5 38 -11 489 -18 489 -3 -1 -37 -19 -74 -41z"/>
<path d="M1343 886 c-40 -22 -73 -45 -73 -49 0 -10 302 -358 307 -354 3 3
-153 437 -159 442 -2 2 -36 -16 -75 -39z"/>
<path d="M1117 758 c-60 -33 -105 -64 -100 -69 11 -10 543 -238 543 -232 0 11
-313 363 -324 363 -6 0 -60 -28 -119 -62z"/>
<path d="M818 678 c-19 -29 -40 -64 -47 -77 -13 -23 -12 -23 40 7 30 17 74 42
98 55 l43 25 -47 21 c-26 12 -49 21 -50 21 -1 0 -18 -24 -37 -52z"/>
</g>
</svg>
