<?xml version="1.0" standalone="no"?>
<!DOCTYPE svg PUBLIC "-//W3C//DTD SVG 20010904//EN"
 "http://www.w3.org/TR/2001/REC-SVG-20010904/DTD/svg10.dtd">
<svg version="1.0" xmlns="http://www.w3.org/2000/svg"
 width="258.000000pt" height="258.000000pt" viewBox="0 0 258.000000 258.000000"
 preserveAspectRatio="xMidYMid meet">
<metadata>
Created by potrace 1.11, written by Peter Selinger 2001-2013
</metadata>
<g transform="translate(0.000000,258.000000) scale(0.100000,-0.100000)"
fill="#000000" stroke="none">
<path d="M1115 2559 c-248 -34 -506 -155 -692 -324 -369 -335 -507 -881 -342
-1353 180 -512 660 -852 1203 -852 441 0 845 225 1080 602 227 366 249 846 55
1232 -67 132 -127 215 -239 327 -182 184 -399 303 -647 354 -95 20 -322 27
-418 14z m235 -237 c15 -12 23 -30 24 -53 0 -26 55 -121 244 -426 135 -218
252 -395 262 -398 10 -3 24 -19 30 -36 11 -25 10 -36 -2 -62 -23 -48 -14 -713
10 -740 22 -24 20 -81 -3 -107 -28 -31 -88 -27 -114 6 -26 33 -26 54 -1 101
19 36 20 56 20 366 l-1 328 -23 10 c-19 9 -53 2 -187 -41 -265 -84 -321 -100
-330 -95 -4 3 -61 21 -126 40 -65 20 -168 51 -229 70 -60 19 -118 35 -127 35
-16 0 -17 -28 -17 -348 0 -324 1 -350 19 -386 33 -63 2 -116 -68 -116 -64 0
-97 84 -51 130 19 19 20 33 20 373 -1 294 -3 355 -15 371 -33 44 -4 126 44
126 10 0 75 95 166 242 83 133 189 305 238 382 58 94 87 150 87 170 0 64 79
99 130 58z"/>
<path d="M1049 1813 c-174 -280 -234 -383 -229 -397 5 -15 55 -34 236 -88 126
-37 236 -68 246 -68 9 0 56 13 105 29 48 15 148 47 220 70 85 26 136 48 142
59 7 14 -39 95 -224 392 -129 206 -240 376 -247 378 -8 1 -111 -155 -249 -375z"/>
</g>
</svg>
